<svg width="246" height="254" viewBox="0 0 246 254" fill="none" xmlns="http://www.w3.org/2000/svg">
<path d="M26.7087 0.414413C23.9784 0.732075 21.0576 1.62152 17.8194 3.20981C2.45352 10.8336 -3.83252 28.9402 3.65993 44.1243C14.9621 67.1863 47.3447 67.1863 58.6469 44.1243C66.1393 28.9402 59.8533 10.8336 44.4874 3.20981C39.0268 0.541477 33.4392 -0.347965 26.7087 0.414413ZM38.7728 13.6926C42.5826 15.4079 46.2018 18.9657 48.0431 22.8411C49.2496 25.3189 49.567 27.0977 49.567 30.7826C49.567 36.3734 48.1701 39.9947 44.6144 43.7431C40.9952 47.4914 36.868 49.2068 31.1534 49.2068C25.4388 49.2068 21.3116 47.4914 17.6924 43.7431C14.1367 39.9947 12.7398 36.3734 12.7398 30.7826C12.7398 25.0647 14.4541 20.9352 18.2004 17.3139C21.9466 13.7561 25.5658 12.3584 31.1534 12.3584C34.5821 12.3584 36.741 12.7396 38.7728 13.6926Z" fill="#AA7933"/>
<path d="M118.777 0.414352C116.047 0.732025 113.126 1.62146 109.888 3.20976C94.5852 10.8336 88.2357 29.0036 95.6646 44.0607L97.9505 48.762L72.2984 74.4288L46.6463 100.096L43.0905 98.4438C35.5981 95.0131 25.6928 95.2673 17.8194 99.2062C2.45352 106.766 -3.83252 124.873 3.65993 140.057C11.1524 155.368 29.0581 161.658 44.3604 154.352C59.2818 147.236 66.0123 128.939 59.0913 114.073C58.0119 111.786 56.615 109.371 56.0436 108.736C55.0911 107.656 56.361 106.258 80.4893 82.1162L106.014 56.5764L110.396 58.6094C125.571 65.5979 143.604 59.1177 150.842 44.0607C152.049 41.4559 153.064 38.9146 153.064 38.2793C153.064 37.1992 154.144 37.1357 169.256 37.1357C184.622 37.1357 185.447 37.1992 185.447 38.3428C185.447 38.9781 186.526 41.6465 187.796 44.1877C199.226 67.1862 231.481 67.1227 242.783 44.1242C250.276 28.9401 243.99 10.8336 228.56 3.20976C217.512 -2.25397 203.924 -0.284485 194.59 8.16524C191.098 11.3418 187.606 16.6785 186.019 21.5069L184.876 24.747H169.256H153.636L152.493 21.5069C149.763 13.3113 144.175 7.02167 136.302 3.14622C131.095 0.541428 125.38 -0.348022 118.777 0.414352ZM131.159 13.8831C145.445 20.6174 145.445 40.9476 131.159 47.682C126.269 50.0327 119.602 49.8421 114.523 47.3008C108.046 44.0607 104.871 38.5969 104.808 30.7825C104.808 25.0647 106.522 20.9351 110.269 17.3138C114.015 13.756 117.634 12.3583 123.222 12.3583C126.904 12.3583 128.682 12.676 131.159 13.8831ZM222.909 13.6925C226.719 15.4079 230.338 18.9656 232.18 22.8411C233.386 25.3188 233.703 27.0977 233.703 30.7825C233.703 36.3733 232.307 39.9946 228.751 43.743C225.132 47.4914 221.004 49.2067 215.29 49.2067C209.575 49.2067 205.448 47.4914 201.829 43.743C193.003 34.4674 195.797 19.3468 207.353 13.8831C211.607 11.8501 218.719 11.7865 222.909 13.6925ZM39.7253 110.07C46.1383 113.12 49.567 118.838 49.567 126.715C49.567 132.306 48.1702 135.928 44.6144 139.676C40.9952 143.424 36.868 145.14 31.1534 145.14C25.4388 145.14 21.3116 143.424 17.6924 139.676C14.1367 135.928 12.7398 132.306 12.7398 126.715C12.7398 120.998 14.4541 116.868 18.2004 113.247C21.9466 109.689 25.5658 108.291 31.1534 108.291C35.0901 108.291 36.5505 108.609 39.7253 110.07Z" fill="#AA7933"/>
<path d="M118.777 96.3474C116.047 96.665 113.126 97.5545 109.888 99.1428C90.839 108.609 86.7118 133.45 101.697 148.507C113.507 160.324 132.936 160.324 144.746 148.507C159.731 133.45 155.604 108.609 136.556 99.1428C131.095 96.4744 125.507 95.585 118.777 96.3474ZM130.841 109.626C134.651 111.341 138.27 114.899 140.111 118.774C141.318 121.252 141.635 123.031 141.635 126.716C141.635 132.306 140.238 135.928 136.683 139.676C133.063 143.424 128.936 145.14 123.222 145.14C117.507 145.14 113.38 143.424 109.761 139.676C106.205 135.928 104.808 132.306 104.808 126.716C104.808 120.998 106.522 116.868 110.269 113.247C114.015 109.689 117.634 108.291 123.222 108.291C126.65 108.291 128.809 108.673 130.841 109.626Z" fill="#AA7933"/>
<path d="M210.845 96.3474C208.115 96.665 205.194 97.5545 201.956 99.1428C183.034 108.545 178.78 133.069 193.511 148.253L196.876 151.747L171.669 177.033L146.461 202.255L143.604 199.65C131.666 189.04 112.935 189.612 101.697 200.857C98.0775 204.478 93.3788 212.547 93.3788 215.088C93.3788 216.232 92.5534 216.295 77.1875 216.295C61.8216 216.295 60.9962 216.232 60.9962 215.088C60.9962 214.453 59.9168 211.785 58.6469 209.243C51.0274 193.932 32.9313 187.642 17.8194 195.139C2.45352 202.7 -3.83252 220.806 3.65993 235.99C12.9937 255.05 37.8839 259.243 52.8053 244.249C56.4245 240.691 59.2818 235.927 60.6787 231.225L61.4407 228.684H77.1875H92.9343L93.6963 231.225C96.1091 239.357 102.078 246.346 109.888 250.158C126.777 258.48 147.54 249.268 152.81 231.035C153.953 227.223 154.08 218.392 153.064 215.025L152.429 212.801L180.367 184.847L208.369 156.83L211.861 157.211C224.751 158.608 237.005 151.811 242.783 140.057C250.276 124.873 243.99 106.767 228.624 99.1428C223.163 96.4744 217.576 95.585 210.845 96.3474ZM222.909 109.626C226.719 111.341 230.338 114.899 232.18 118.774C234.211 123.031 234.275 130.146 232.37 134.339C229.322 141.074 223.036 145.14 215.607 145.14C209.448 145.14 207.035 144.314 203.162 140.82C198.591 136.754 196.876 132.878 196.876 126.716C196.876 120.998 198.591 116.868 202.337 113.247C206.083 109.689 209.702 108.291 215.29 108.291C218.719 108.291 220.877 108.673 222.909 109.626ZM39.0903 205.749C50.6465 211.213 53.4403 226.333 44.6144 235.609C40.9952 239.357 36.868 241.073 31.1534 241.073C25.4388 241.073 21.3116 239.357 17.6924 235.609C14.1367 231.861 12.7398 228.239 12.7398 222.648C12.7398 216.931 14.4541 212.801 18.2004 209.18C21.9466 205.622 25.5658 204.224 31.1534 204.224C34.8361 204.224 36.614 204.542 39.0903 205.749ZM131.159 205.749C135.222 207.655 139.413 212.039 140.683 215.596C142.08 219.599 141.889 226.715 140.302 230.272C138.587 234.084 135.032 237.706 131.159 239.548C128.682 240.691 126.904 241.073 123.222 241.073C117.507 241.073 113.38 239.357 109.761 235.609C100.935 226.333 103.729 211.213 115.285 205.749C119.729 203.652 126.714 203.652 131.159 205.749Z" fill="#AA7933"/>
<path d="M210.845 192.28C208.115 192.598 205.194 193.487 201.956 195.076C182.907 204.542 178.78 229.383 193.765 244.44C205.575 256.257 225.005 256.257 236.815 244.44C251.8 229.383 247.672 204.542 228.624 195.076C223.163 192.407 217.576 191.518 210.845 192.28ZM222.909 205.558C226.719 207.274 230.338 210.832 232.18 214.707C233.386 217.185 233.703 218.964 233.703 222.648C233.703 228.239 232.307 231.861 228.751 235.609C225.132 239.357 221.004 241.073 215.29 241.073C209.575 241.073 205.448 239.357 201.829 235.609C198.273 231.861 196.876 228.239 196.876 222.648C196.876 216.931 198.591 212.801 202.337 209.18C206.083 205.622 209.702 204.224 215.29 204.224C218.719 204.224 220.877 204.605 222.909 205.558Z" fill="#AA7933"/>
</svg>
